<?xml version="1.0" standalone="no"?>
<!DOCTYPE svg PUBLIC "-//W3C//DTD SVG 20010904//EN"
 "http://www.w3.org/TR/2001/REC-SVG-20010904/DTD/svg10.dtd">
<svg version="1.0" xmlns="http://www.w3.org/2000/svg"
 width="260.000000pt" height="260.000000pt" viewBox="0 0 260.000000 260.000000"
 preserveAspectRatio="xMidYMid meet">
<metadata>
Created by potrace 1.11, written by Peter Selinger 2001-2013
</metadata>
<g transform="translate(0.000000,260.000000) scale(0.100000,-0.100000)"
fill="#000000" stroke="none">
<path d="M562 2550 c-131 -24 -243 -82 -336 -176 -243 -242 -243 -626 0 -868
242 -243 626 -243 868 0 305 304 212 817 -179 994 -109 49 -247 68 -353 50z
m438 -305 l0 -45 -145 0 -145 0 0 -355 0 -355 -55 0 -55 0 0 355 0 355 -145 0
-145 0 0 45 0 45 345 0 345 0 0 -45z"/>
<path d="M1842 2550 c-274 -49 -472 -255 -513 -535 -41 -274 136 -561 404
-655 227 -80 471 -25 641 146 305 304 212 817 -179 994 -109 49 -247 68 -353
50z"/>
<path d="M562 1270 c-223 -40 -409 -196 -482 -403 -80 -227 -25 -471 146 -641
242 -243 626 -243 868 0 305 304 212 817 -179 994 -109 49 -247 68 -353 50z"/>
<path d="M1842 1270 c-223 -40 -409 -196 -482 -403 -80 -227 -25 -471 146
-641 242 -243 626 -243 868 0 222 221 244 554 52 812 -126 169 -376 269 -584
232z m448 -295 l0 -45 -145 0 -145 0 0 -355 0 -355 -55 0 -55 0 0 355 0 355
-145 0 -145 0 0 45 0 45 345 0 345 0 0 -45z"/>
</g>
</svg>
